<svg xmlns="http://www.w3.org/2000/svg" id="Layer_1" x="0" y="0" version="1.1" viewBox="0 0 371.5 65.41" xml:space="preserve"><style>.st0{fill:#fff}</style><path d="M218.01 0H132.6l17.51 26.82V5.46h10.46v37.38l14.73 22.57 15.52-23.77-15.01-19.23v20.58h-10.24V5.46h9.73l15.47 19.84V5.46h10.24v20.58zM0 17.56h15.87v4.82H5.5v3.34h9.38v4.59H5.5v7.09H0zM20.71 17.56h5.53V37.4h-5.53zM31.27 17.56h5.5v15.02h9.6v4.82h-15.1zM50.96 17.56h5.81l4.73 7.68 4.73-7.68h5.81V37.4h-5.47V26l-5.05 7.77h-.12l-5.03-7.71V37.4h-5.41zM77.9 17.56h5.53V37.4H77.9zM89.29 17.56h5.14l8.18 10.48V17.56h5.41V37.4h-4.83L94.7 26.52V37.4h-5.41zM122.23 37.79c-1.55 0-2.98-.25-4.29-.75s-2.45-1.2-3.41-2.11a9.86 9.86 0 01-3.09-7.4v-.06a10.3 10.3 0 013.01-7.33c.94-.94 2.07-1.67 3.38-2.2 1.31-.53 2.73-.79 4.26-.79 1.76 0 3.27.26 4.55.77 1.28.51 2.44 1.22 3.5 2.13l-3.23 3.88a8.97 8.97 0 00-2.2-1.39 6.54 6.54 0 00-2.59-.48 4.98 4.98 0 00-3.6 1.59 5.76 5.76 0 00-1.48 3.86v.06c0 .79.13 1.53.4 2.21a5.06 5.06 0 002.83 2.88c.65.27 1.38.41 2.18.41 1.29 0 2.35-.27 3.18-.82v-2.41h-3.91v-4.02h9.12v8.93a13.09 13.09 0 01-8.61 3.04M220.12 17.56h15.93v4.68h-10.51v3h9.52v4.34h-9.52v3.14h10.65v4.68h-16.07zM249.98 37.79a10.3 10.3 0 01-7.25-2.91 10.25 10.25 0 01-2.99-7.35v-.06a10.29 10.29 0 016.27-9.53c1.27-.53 2.67-.79 4.18-.79 1.02 0 1.95.1 2.78.3a9.51 9.51 0 014.15 2.17 11.2 11.2 0 011.49 1.67l-4.14 3.2a7.24 7.24 0 00-1.87-1.7 4.6 4.6 0 00-2.46-.63 4.42 4.42 0 00-3.4 1.53 5.76 5.76 0 00-1.34 3.71v.06a5.94 5.94 0 001.34 3.77 4.45 4.45 0 003.4 1.53c.51 0 .98-.06 1.4-.17.42-.11.81-.28 1.16-.5a6 6 0 00.99-.77c.31-.29.62-.62.92-.98l4.14 2.95a15.6 15.6 0 01-1.54 1.79 8.97 8.97 0 01-4.28 2.35c-.87.25-1.85.36-2.95.36M271.45 37.77c-1.42 0-2.69-.18-3.83-.54a7.39 7.39 0 01-2.89-1.66 7.42 7.42 0 01-1.83-2.84 11.69 11.69 0 01-.64-4.04V17.56h5.61v11.02c0 1.43.33 2.5.98 3.19a3.47 3.47 0 002.64 1.04c1.11 0 1.99-.33 2.64-.99.66-.66.98-1.69.98-3.09V17.56h5.61v10.99c0 1.61-.22 2.99-.67 4.15a7.42 7.42 0 01-1.87 2.86 7.5 7.5 0 01-2.92 1.66c-1.11.36-2.39.55-3.81.55M290.61 17.42h5.3l8.45 19.98h-5.89l-1.45-3.54h-7.65l-1.42 3.54h-5.78l8.44-19.98zm4.82 12.18l-2.21-5.64-2.24 5.64h4.45zM306.86 17.56h7.65c1.78 0 3.36.24 4.75.72 1.39.48 2.56 1.16 3.52 2.02.95.87 1.68 1.9 2.18 3.1.5 1.2.75 2.52.75 3.96v.06c0 1.44-.26 2.76-.76 3.98a8.99 8.99 0 01-2.21 3.16c-.96.89-2.15 1.58-3.56 2.08-1.41.5-3 .75-4.77.75h-7.54V17.56zm7.75 14.96c1.65 0 2.98-.43 3.98-1.3a4.63 4.63 0 001.51-3.71v-.06c0-1.59-.5-2.82-1.51-3.7a5.81 5.81 0 00-3.98-1.32h-2.25v10.09h2.25zM339.92 37.79c-1.53 0-2.95-.27-4.25-.81a10.28 10.28 0 01-5.6-5.46 9.95 9.95 0 01-.81-3.99v-.06a10.05 10.05 0 013.06-7.3 10.98 10.98 0 017.65-3.02c1.53 0 2.95.27 4.25.81 1.3.54 2.43 1.27 3.37 2.2a9.83 9.83 0 012.22 3.26c.54 1.25.81 2.58.81 4v.06a10.05 10.05 0 01-3.06 7.3 10.8 10.8 0 01-7.64 3.01m.04-4.96c.76 0 1.45-.14 2.07-.42a4.65 4.65 0 001.59-1.15 5.55 5.55 0 001.39-3.72v-.06a5.55 5.55 0 00-1.42-3.74 4.86 4.86 0 00-3.69-1.62 4.78 4.78 0 00-3.65 1.58 4.75 4.75 0 00-1.02 1.69 5.76 5.76 0 00-.36 2.04v.06a5.55 5.55 0 001.41 3.74c.45.49.98.88 1.61 1.18.63.28 1.32.42 2.07.42M353.25 17.56h9.38c1.53 0 2.82.19 3.88.57 1.06.38 1.92.91 2.58 1.59a6.13 6.13 0 011.76 4.62v.06a6.3 6.3 0 01-1.1 3.8 6.94 6.94 0 01-2.98 2.29l4.73 6.91h-6.35l-3.99-6.01h-2.41v6.01h-5.5V17.56zm9.12 9.52a3.3 3.3 0 002.18-.64c.51-.42.76-1 .76-1.71v-.06c0-.79-.27-1.38-.79-1.77a3.62 3.62 0 00-2.18-.58h-3.6v4.76h3.63z" class="st0"/></svg>