<svg xmlns="http://www.w3.org/2000/svg" viewBox="0 0 1133.59 403.61"><style></style><path fill="#fff" d="M25.4 3.1h50.34v181.33H25.4V3.1zm76.94 0h69.7c16.2 0 30.6 2.2 43.26 6.62 12.65 4.4 23.32 10.58 32.02 18.52A79 79 0 01267.2 56.6c4.56 10.97 6.84 23 6.84 36.13v.52c0 13.13-2.32 25.25-6.97 36.4a81.7 81.7 0 01-20.14 28.87c-8.78 8.12-19.58 14.46-32.4 19.04-12.83 4.58-27.33 6.86-43.5 6.86h-68.7V3.12zm70.56 136.77c15.03 0 27.12-3.97 36.28-11.92 9.16-7.94 13.74-19.25 13.74-33.93v-.52c0-14.5-4.58-25.77-13.74-33.8-9.16-8.03-21.25-12.04-36.28-12.04h-20.47v92.2h20.47zM293.4 3.1h145.12v42.75h-95.8V73.3h86.77v39.63h-86.77v28.75h97.08v42.74H293.4V3.12zm228.26-1.3h48.28l76.94 182.62h-53.7L580 152.04h-69.7l-12.92 32.38H444.7l76.96-182.6zm43.9 111.4L545.4 61.64 525 113.2h40.55zM729 187.53c-16.2 0-31.56-2.52-46.1-7.56a111.7 111.7 0 01-38.6-22.68l27.9-33.5c18.06 14.5 37.6 21.76 58.6 21.76 6.7 0 11.83-1.08 15.36-3.23 3.53-2.15 5.3-5.22 5.3-9.18v-.5c0-1.9-.44-3.6-1.3-5.05-.86-1.47-2.45-2.9-4.78-4.27a49.12 49.12 0 00-9.3-4c-3.87-1.3-8.9-2.64-15.1-4.02a322.17 322.17 0 01-26.85-7.36c-8.26-2.67-15.45-6.12-21.56-10.34a46.95 46.95 0 01-14.46-15.77c-3.52-6.3-5.28-14.1-5.28-23.4v-.5c0-8.46 1.6-16.22 4.78-23.28a51.43 51.43 0 0113.94-18.36c6.1-5.18 13.47-9.2 22.08-12.03C702.22 1.42 711.95 0 722.8 0c15.48 0 29.3 2.04 41.43 6.13a104.58 104.58 0 0132.92 18.1l-25.05 35.6a102 102 0 00-25.43-13.33c-8.7-3.02-17.1-4.53-25.17-4.53-6.03 0-10.55 1.12-13.56 3.36-3 2.24-4.52 5-4.52 8.27v.52c0 2.07.47 3.88 1.42 5.43.94 1.55 2.58 2.98 4.9 4.27 2.33 1.3 5.52 2.6 9.56 3.88 4.04 1.3 9.17 2.63 15.36 4a219.99 219.99 0 0128 7.9c8.36 3 15.46 6.67 21.3 10.98a43.83 43.83 0 0113.44 15.64c3.1 6.12 4.65 13.4 4.65 21.85v.52c0 9.3-1.77 17.58-5.3 24.8a53.21 53.21 0 01-14.84 18.5c-6.36 5.1-14.02 8.96-22.97 11.64-8.94 2.66-18.92 4-29.94 4zM885.98 3.1h50.35v181.33h-50.35V3.1zm76.94 0h46.84l74.52 95.85V3.1h49.32v181.33h-44l-77.36-99.46v99.46h-49.32V3.1z"/><path fill="#ff5100" d="M48.54 218.93h50.6l24.02 70.2 61.45-70.2h56.3l-48.54 181.3H142l27.64-104.12-64.8 70.98h-1.04l-26.6-70.45-27.63 103.6H0l48.54-181.3zM319.9 403.6c-12.9 0-24.65-2.06-35.23-6.2-10.6-4.15-19.67-9.85-27.24-17.1a75.3 75.3 0 01-17.56-25.78c-4.13-9.93-6.2-20.68-6.2-32.25 0-13.8 2.67-27.15 8-40.02A107.56 107.56 0 01264 248.2a109.87 109.87 0 0134.08-23.7c13.17-5.97 27.58-8.95 43.25-8.95 12.9 0 24.66 2.07 35.24 6.22 10.6 4.14 19.66 9.84 27.24 17.1a75.18 75.18 0 0117.57 25.77c4.13 9.93 6.2 20.68 6.2 32.25 0 13.8-2.67 27.15-8 40a107.6 107.6 0 01-22.33 34.07 110.2 110.2 0 01-34.08 23.7c-13.17 5.96-27.6 8.94-43.25 8.94zm4.44-45.06c7.87 0 15.02-1.72 21.43-5.18 6.42-3.45 11.85-8 16.3-13.6a66.1 66.1 0 0010.4-18.65 59.1 59.1 0 003.72-20.32c0-5.7-.87-11-2.58-15.93a36.17 36.17 0 00-7.57-12.82 33.84 33.84 0 00-12.33-8.42c-4.88-1.97-10.48-2.97-16.82-2.97-7.88 0-14.98 1.73-21.3 5.18a54.15 54.15 0 00-16.3 13.6 64.9 64.9 0 00-10.54 18.66 58.72 58.72 0 00-3.72 20.33c0 5.7.86 11 2.57 15.92a36.23 36.23 0 007.6 12.82 33.72 33.72 0 0012.3 8.42c4.9 2 10.5 2.98 16.84 2.98zm175.28-95.58H445.4l11.88-44.03h158.28l-11.62 44.03h-54.22l-36.66 137.28H462.7l36.92-137.28zm130.9-44.03h50.1l-48.55 181.3h-50.1l48.55-181.3zm130.4 184.67c-12.9 0-24.66-2.06-35.24-6.2-10.6-4.15-19.67-9.85-27.24-17.1a75.3 75.3 0 01-17.56-25.78c-4.13-9.93-6.2-20.68-6.2-32.25 0-13.8 2.67-27.15 8-40.02A107.53 107.53 0 01705 248.2a110.08 110.08 0 0134.1-23.7c13.16-5.97 27.57-8.95 43.24-8.95 12.9 0 24.66 2.07 35.24 6.22 10.6 4.14 19.66 9.84 27.24 17.1a75.3 75.3 0 0117.56 25.77c4.13 9.93 6.2 20.68 6.2 32.25 0 13.8-2.67 27.15-8 40a107.6 107.6 0 01-22.33 34.07 110.2 110.2 0 01-34.08 23.7c-13.17 5.96-27.6 8.94-43.25 8.94zm4.42-45.06c7.87 0 15.02-1.72 21.43-5.18 6.42-3.45 11.85-8 16.3-13.6a66.1 66.1 0 0010.4-18.65 59.1 59.1 0 003.72-20.32c0-5.7-.87-11-2.58-15.93a36.17 36.17 0 00-7.57-12.82 33.84 33.84 0 00-12.33-8.42c-4.88-1.97-10.48-2.97-16.82-2.97-7.88 0-14.98 1.73-21.3 5.18a54.15 54.15 0 00-16.3 13.6 64.9 64.9 0 00-10.54 18.66 58.72 58.72 0 00-3.72 20.33c0 5.7.86 11 2.57 15.92a36.23 36.23 0 007.6 12.82 33.72 33.72 0 0012.3 8.42c4.9 2 10.5 2.98 16.84 2.98zm144.81-139.61h46.73l46.73 100.76 27.12-100.77h49.83L1032 400.23h-43.88l-48.8-104.38-27.9 104.4H861.6l48.55-181.32z"/></svg>