<svg xmlns="http://www.w3.org/2000/svg" id="Layer_1" x="0" y="0" version="1.1" viewBox="0 0 120 120" xml:space="preserve"><style></style><path id="icon:1_1_" fill="#fff" d="M92.64 97.09H27.36c-2.45 0-4.45-2-4.45-4.45V27.36c0-2.45 2-4.45 4.45-4.45h65.27c2.45 0 4.45 2 4.45 4.45v65.27a4.45 4.45 0 01-4.44 4.46zM27.36 25.88c-.82 0-1.48.67-1.48 1.48v65.27c0 .82.67 1.48 1.48 1.48h65.27c.82 0 1.48-.66 1.48-1.48V27.36c0-.82-.67-1.48-1.48-1.48H27.36zm18.79 52.87V44.28l34.47 17.24-34.47 17.23zm2.96-29.67v24.87l24.87-12.43-24.87-12.44z"/></svg>