<?xml version="1.0" encoding="utf-8"?>
<!-- Generator: Adobe Illustrator 24.0.0, SVG Export Plug-In . SVG Version: 6.00 Build 0)  -->
<svg version="1.1" id="Layer_1" xmlns="http://www.w3.org/2000/svg" xmlns:xlink="http://www.w3.org/1999/xlink" x="0px" y="0px"
	 viewBox="0 0 150 150" style="enable-background:new 0 0 150 150;" xml:space="preserve">
<style type="text/css">
	.st0{fill:#FFFFFF;}
	.st1{fill:none;stroke:#000000;stroke-width:4;stroke-miterlimit:10;}
	.st2{fill:none;stroke:#000000;stroke-width:5;stroke-miterlimit:10;}
	.st3{fill:none;stroke:#000000;stroke-width:4.1;stroke-linecap:square;stroke-miterlimit:10;}
	.st4{fill:#212121;stroke:#212121;stroke-miterlimit:10;}
	.st5{fill:none;stroke:#212121;stroke-width:4;stroke-linecap:round;stroke-linejoin:round;stroke-miterlimit:10;}
	.st6{fill:none;stroke:#FFFFFF;stroke-width:4;stroke-miterlimit:10;}
	.st7{fill:none;stroke:#FFFFFF;stroke-width:2.5;stroke-miterlimit:10;}
	.st8{fill:none;stroke:#FFFFFF;stroke-width:2;stroke-miterlimit:10;}
	.st9{fill:none;stroke:#FFFFFF;stroke-miterlimit:10;}
	.st10{fill:none;stroke:#FFFFFF;stroke-width:1.5;stroke-miterlimit:10;}
</style>
<g>
	<polygon class="st0" points="139.95,107 135.46,107 135.46,29.49 17.59,29.49 17.59,107 13.1,107 13.1,24.99 139.95,24.99 	"/>
	<polygon class="st0" points="139.95,122.02 13.1,122.02 13.1,102.51 129.72,102.51 129.72,107 17.59,107 17.59,117.52 
		135.46,117.52 135.46,102.51 139.95,102.51 	"/>
	<g>
		<path class="st0" d="M57.17,82.17l18.95,9.47c0.22,0.11,0.46,0.17,0.71,0.17c0.24,0,0.48-0.06,0.71-0.17l18.95-9.47
			c0.54-0.27,0.87-0.81,0.87-1.41V58.65c0-0.6-0.34-1.14-0.87-1.41l-18.95-9.47c-0.44-0.22-0.97-0.22-1.41,0l-18.95,9.47
			c-0.54,0.27-0.87,0.81-0.87,1.41v22.11C56.29,81.35,56.63,81.9,57.17,82.17z M59.45,61.2l15.79,7.9v18.58l-15.79-7.9V61.2z
			 M78.4,87.67V69.1l15.79-7.9v18.58L78.4,87.67z M76.82,50.94l15.42,7.71l-15.42,7.71l-15.42-7.71L76.82,50.94z"/>
		<path class="st0" d="M75.2,43.13l0.46-0.46v6.33h3.16v-6.33l0.46,0.46c0.31,0.31,0.71,0.46,1.12,0.46c0.4,0,0.81-0.15,1.12-0.46
			c0.62-0.62,0.62-1.62,0-2.23l-3.16-3.16c-0.62-0.62-1.62-0.62-2.23,0l-3.16,3.16c-0.62,0.62-0.62,1.62,0,2.23
			S74.58,43.75,75.2,43.13z"/>
		<path class="st0" d="M54.68,86.58l-0.65,0l4.47-4.47l-2.23-2.23l-4.47,4.47l0-0.65c0-0.44-0.18-0.83-0.46-1.12
			c-0.29-0.29-0.68-0.46-1.12-0.46c-0.87,0-1.58,0.71-1.58,1.58l0,4.47c0,0.87,0.71,1.58,1.58,1.58l4.47,0
			c0.87,0,1.58-0.71,1.58-1.58S55.55,86.58,54.68,86.58z"/>
		<path class="st0" d="M101.69,83.7l0,0.65l-4.47-4.47l-2.23,2.23l4.47,4.47l-0.65,0c-0.44,0-0.83,0.18-1.12,0.46
			c-0.29,0.29-0.46,0.68-0.46,1.12c0,0.87,0.71,1.58,1.58,1.58l4.47,0c0.87,0,1.58-0.71,1.58-1.58l0-4.47
			c0-0.87-0.71-1.58-1.58-1.58C102.4,82.12,101.69,82.82,101.69,83.7z"/>
	</g>
</g>
</svg>
