<svg xmlns="http://www.w3.org/2000/svg" viewBox="0 0 120 120" enable-background="new 0 0 120 120"><style type="text/css">.st0{fill:#FFFFFF;} .st1{fill:none;stroke:#FFFFFF;stroke-width:3;stroke-miterlimit:10;}</style><path id="icon:5_1_" d="M89.1 107.1H13.46V56.66h11.72c-9.5-2.52-16.54-11.2-16.54-21.5 0-12.28 9.98-22.26 22.25-22.26 9.44 0 17.54 5.93 20.76 14.26 3.22-8.33 11.3-14.26 20.77-14.26 12.27 0 22.25 9.98 22.25 22.25 0 10.3-7.03 19-16.54 21.5H89.1V69.3l22.26-8.9v41.47l-22.25-8.9v14.13zm-72.68-2.97h69.73v-44.5H16.42v44.5zm72.7-14.35l19.28 7.7V64.8l-19.3 7.7v17.28zM36.58 56.66h30.1c-6.9-1.84-12.5-6.92-15.05-13.52-2.54 6.6-8.14 11.7-15.06 13.52zm35.82-40.8c-10.63 0-19.3 8.66-19.3 19.3s8.66 19.3 19.3 19.3 19.3-8.66 19.3-19.3-8.66-19.3-19.3-19.3zm-41.53 0c-10.64 0-19.3 8.66-19.3 19.3s8.65 19.3 19.3 19.3 19.28-8.66 19.28-19.3-8.66-19.3-19.3-19.3zm41.52 26.7c-4.1 0-7.43-3.32-7.43-7.4s3.33-7.43 7.42-7.43c4.1 0 7.4 3.33 7.4 7.42s-3.32 7.42-7.4 7.42zm0-11.86c-2.46 0-4.46 2-4.46 4.45s2 4.45 4.45 4.45 4.44-2 4.44-4.45-2-4.45-4.45-4.45zM30.9 42.57c-4.1 0-7.43-3.33-7.43-7.42s3.33-7.42 7.42-7.42 7.4 3.33 7.4 7.42-3.33 7.42-7.4 7.42zm0-11.87c-2.46 0-4.46 2-4.46 4.45s2 4.45 4.45 4.45 4.43-2 4.43-4.45-2-4.45-4.45-4.45z" class="st0"/></svg>