<svg xmlns="http://www.w3.org/2000/svg" viewBox="0 0 120 120" enable-background="new 0 0 120 120"><style type="text/css">.st0{fill:#FFFFFF;} .st1{fill:none;stroke:#FFFFFF;stroke-width:3;stroke-miterlimit:10;}</style><g id="_x33_"><path d="M11.17 21.28h97.67v12.78H11.17zm9.93 5.86v1.06m11.2-1.06v1.06m11.18-1.06v1.06m11.2-1.06v1.06m11.2-1.06v1.06m11.2-1.06v1.06m11.18-1.06v1.06m11.2-1.06v1.06M11.17 85.95h97.67v12.78H11.17zm9.93 5.85v1.06m11.2-1.06v1.06m11.18-1.06v1.06m11.2-1.06v1.06m11.2-1.06v1.06m11.2-1.06v1.06m11.18-1.06v1.06m11.2-1.06v1.06M68.54 60l-13.57-7.84v15.68zM16.5 40.2v39.6m87-39.6v39.6" class="st1"/></g></svg>