<?xml version="1.0" encoding="utf-8"?>
<!-- Generator: Adobe Illustrator 24.0.0, SVG Export Plug-In . SVG Version: 6.00 Build 0)  -->
<svg version="1.1" id="Layer_1" xmlns="http://www.w3.org/2000/svg" xmlns:xlink="http://www.w3.org/1999/xlink" x="0px" y="0px"
	 viewBox="0 0 150 150" style="enable-background:new 0 0 150 150;" xml:space="preserve">
<style type="text/css">
	.st0{fill:#FFFFFF;}
	.st1{fill:none;stroke:#FFFFFF;stroke-width:4;stroke-miterlimit:10;}
	.st2{fill:none;stroke:#FFFFFF;stroke-width:5;stroke-miterlimit:10;}
	.st3{fill:none;stroke:#FFFFFF;stroke-width:4.1;stroke-linecap:square;stroke-miterlimit:10;}
	.st4{fill:none;stroke:#FFFFFF;stroke-miterlimit:10;}
	.st5{fill:none;stroke:#FFFFFF;stroke-width:4;stroke-linecap:round;stroke-linejoin:round;stroke-miterlimit:10;}
	.st6{fill:none;stroke:#FFFFFF;stroke-width:2.5;stroke-miterlimit:10;}
	.st7{fill:none;stroke:#FFFFFF;stroke-width:2;stroke-miterlimit:10;}
	.st8{fill:none;stroke:#FFFFFF;stroke-width:1.5;stroke-miterlimit:10;}
</style>
<g>
	<g id="_x31_1_1_">
		<polyline class="st1" points="118.98,66.79 118.98,110.73 13.01,110.73 13.01,37.41 89.86,37.41 		"/>
		<polyline class="st2" points="79.9,115.76 79.9,125.13 52.09,125.13 52.09,110.73 79.9,110.73 		"/>
		<line class="st2" x1="42.13" y1="125.13" x2="89.87" y2="125.13"/>
		<line class="st1" x1="13.01" y1="98.47" x2="110.67" y2="98.47"/>
	</g>
	<polygon class="st3" points="114.46,30.08 114.46,47.29 128.32,38.69 	"/>
	<path class="st1" d="M136.24,27.4c2.1,3.25,3.31,7.13,3.31,11.29c0,11.53-9.34,20.87-20.87,20.87s-20.87-9.34-20.87-20.87
		s9.34-20.87,20.87-20.87c4.94,0,9.47,1.71,13.05,4.58"/>
	<g>
		<polygon class="st4" points="35.79,45.48 35.79,89.35 95.4,89.35 95.4,92.06 34.44,92.06 33.08,92.06 33.08,90.7 33.08,45.48 		
			"/>
		<rect x="39.18" y="76.75" class="st4" width="2.71" height="10.57"/>
		<rect x="46.73" y="60.22" class="st4" width="2.71" height="27.09"/>
		<rect x="54.28" y="69.7" class="st4" width="2.71" height="17.61"/>
		<rect x="61.82" y="52.94" class="st4" width="2.71" height="34.38"/>
		<rect x="69.37" y="55.8" class="st4" width="2.71" height="31.51"/>
		<rect x="76.92" y="64.29" class="st4" width="2.71" height="23.03"/>
		<rect x="84.47" y="76.75" class="st4" width="2.71" height="10.57"/>
		<rect x="92.01" y="69.59" class="st4" width="2.71" height="17.73"/>
	</g>
</g>
</svg>
