<svg xmlns="http://www.w3.org/2000/svg" viewBox="0 0 120 120" enable-background="new 0 0 120 120"><style type="text/css">.st0{fill:#FFFFFF;} .st1{fill:none;stroke:#FFFFFF;stroke-width:3;stroke-miterlimit:10;}</style><path id="icon:2_1_" d="M23.1 25.16v69.67h73.8V25.16H23.1zm56.03 2.74h15.03v6.83H79.13V27.9zM40.98 92.1H25.85v-6.83H41v6.83zm0-9.56H25.85V75.7H41v6.84zm0-9.56H25.85v-6.83H41v6.83zm0-9.56H25.85V56.6H41v6.82zm0-9.57H25.85v-6.83H41v6.83zm0-9.56H25.85v-6.85H41v6.83zm0-9.58H25.85V27.9H41v6.83zm35.4 57.37H43.73V61.12H76.4V92.1zm0-33.7H43.73V27.9H76.4v30.5zm17.77 33.7H79.13v-6.84h15.03v6.83zm0-9.57H79.13V75.7h15.03v6.84zm0-9.56H79.13v-6.83h15.03v6.83zm0-9.56H79.13v-6.8h15.03v6.82zm0-9.56H79.13V47h15.03v6.84zm0-9.56H79.13v-6.84h15.03v6.83z" class="st0"/></svg>