<svg xmlns="http://www.w3.org/2000/svg" viewBox="0 0 123 123" enable-background="new 0 0 123 123"><style type="text/css">.st0{fill:#FFFFFF;} .st1{fill:none;stroke:#FFFFFF;stroke-width:3;stroke-miterlimit:10;}</style><path d="M91.6 47.07c-.24-7.76-6.63-14-14.45-14-2 0-3.9.4-5.62 1.13-2.65-3.9-7.1-6.3-11.93-6.3-5 0-9.65 2.6-12.28 6.82-1.33-.4-2.76-.63-4.23-.63-8 0-14.47 6.46-14.47 14.43 0 .18 0 .36 0 .54l-.24-.54c-5.7 2.7-9.4 8.5-9.4 14.8 0 9 7.32 16.34 16.33 16.34h17.22v-.65l.18.17c.02-.04 2.6-2.75 6.07-5.3 1.6-1.16 3.12-2.1 4.56-2.83 2.02-1 3.86-1.57 5.47-1.66.8-.04 1.56.04 2.24.23l.84-2.98c-1-.28-2.1-.4-3.23-.33-2.03.1-4.28.78-6.7 2-1.52.75-3.12 1.75-4.75 2.92.84-2.3 1.46-5 1.46-7.92 0-4.14-1.3-7.4-3.84-9.7-4.6-4.1-11.6-3.4-11.9-3.37l.34 3.1c.06-.02 5.94-.6 9.5 2.6 1.87 1.67 2.8 4.15 2.8 7.37 0 6.37-3.47 11.6-4.7 13.26H35.34c-7.3 0-13.25-5.96-13.25-13.27 0-4.82 2.66-9.3 6.9-11.6C30.4 58.17 36.2 63 43.06 63v-3.1c-6.28 0-11.37-5.1-11.37-11.36 0-6.27 5.1-11.36 11.37-11.36s11.36 5.1 11.36 11.36h3.1c0-5.38-2.95-10.1-7.33-12.57C52.3 32.9 55.82 31 59.6 31c3.7 0 7.1 1.8 9.2 4.72-3.7 2.6-6.1 6.93-6.1 11.8 0 4.8 2.38 9.3 6.36 12l1.73-2.58c-3.16-2.12-5.03-5.64-5.03-9.42 0-6.27 5.1-11.36 11.36-11.36 6.1 0 11.12 4.85 11.35 10.9-8.3.8-14.8 7.8-14.8 16.28h3.1c0-7.3 5.95-13.25 13.26-13.25s13.25 5.93 13.25 13.23S97.37 76.6 90.06 76.6H71.5v3.1h18.55c9 0 16.34-7.34 16.34-16.35 0-8.5-6.5-15.5-14.8-16.28" class="st0"/><path d="M100.7 41.18L111.36 36l1.36 2.78-10.68 5.2zm-90.42-2.4l1.35-2.8 10.68 5.2-1.33 2.78zM90 29.95l8.4-8.4 2.2 2.2-8.4 8.4zm-68.62-6.2l2.2-2.2 8.4 8.4-2.2 2.2zM37.44 12l2.83-1.26L45.1 21.6l-2.84 1.27zm37.53 8.88l4.3-11.06 2.88 1.12-4.3 11.06zM59.44 6.7h3.1v11.87h-3.1zM54.6 116.3l5.9-23.03H50l11.44-18.24 4.86-.97-2.76 11.27h10.5z" class="st0"/></svg>