<svg xmlns="http://www.w3.org/2000/svg" viewBox="0 0 120 120"><style>.st1{fill:none;stroke:#fff;stroke-width:3;stroke-miterlimit:10}</style><g id="_x31_4"><path d="M59.94 91.4H26.47V11.5H73.7v35.27M26.47 76.32h27.9M49.1 84.1h1.97M45.8 19.75h8.56M71.4 97.96V92.8c-5.6-2.04-10.37-11.55-9.93-17.2l-4-8.62c-1.4-3.04-1-6.6 1.1-9.23l1-1.26a2.51 2.51 0 014.2.37l6.67 12.5c.8 1.62 3.24 1.06 3.24-.75V46.78l10.38 8.26a8.12 8.12 0 012.3 2.9c2.05 4.5 6.9 17.17 5.5 34.38" class="st1"/><path d="M68.73 99.05h24.8v9.44h-24.8zm-5.01-42.28a14.64 14.64 0 10-6.97 7.71" class="st1"/><path d="M56.8 51.46L46.63 45.6v11.73z" class="st1"/></g></svg>