<?xml version="1.0" encoding="utf-8"?>
<!-- Generator: Adobe Illustrator 24.0.0, SVG Export Plug-In . SVG Version: 6.00 Build 0)  -->
<svg version="1.1" id="Layer_1" xmlns="http://www.w3.org/2000/svg" xmlns:xlink="http://www.w3.org/1999/xlink" x="0px" y="0px"
	 viewBox="0 0 150 150" style="enable-background:new 0 0 150 150;" xml:space="preserve">
<style type="text/css">
	.st0{fill:#FFFFFF;}
	.st1{fill:#FFFFFF;stroke:#FFFFFF;stroke-width:4;stroke-miterlimit:10;}
	.st2{fill:#FFFFFF;stroke:#FFFFFF;stroke-width:5;stroke-miterlimit:10;}
	.st3{fill:#FFFFFF;stroke:#FFFFFF;stroke-width:4.1;stroke-linecap:square;stroke-miterlimit:10;}
	.st4{fill:#FFFFFF;stroke:#FFFFFF;stroke-miterlimit:10;}
	.st5{fill:none;stroke:#FFFFFF;stroke-width:4;stroke-miterlimit:10;}
	.st6{fill:none;stroke:#FFFFFF;stroke-width:4;stroke-linecap:round;stroke-linejoin:round;stroke-miterlimit:10;}
	.st7{fill:none;stroke:#FFFFFF;stroke-width:2.5;stroke-miterlimit:10;}
	.st8{fill:none;stroke:#FFFFFF;stroke-width:2;stroke-miterlimit:10;}
	.st9{fill:none;stroke:#FFFFFF;stroke-miterlimit:10;}
	.st10{fill:none;stroke:#FFFFFF;stroke-width:1.5;stroke-miterlimit:10;}
</style>
<g>
	<g id="_x35__1_">
		<polyline class="st5" points="61.14,35.24 15.22,35.24 15.22,111.55 137.42,111.55 137.42,35.24 93.14,35.24 		"/>
		<line class="st5" x1="56.53" y1="98.62" x2="125.93" y2="98.62"/>
		<line class="st5" x1="41.82" y1="98.62" x2="49.05" y2="98.62"/>
		<line class="st5" x1="50.85" y1="103.81" x2="50.85" y2="93.43"/>
		<line class="st5" x1="33.73" y1="103.81" x2="33.73" y2="93.43"/>
		<line class="st5" x1="26.24" y1="103.81" x2="26.24" y2="93.43"/>
	</g>
	<g>
		<path class="st6" d="M100.14,84.81V74.73c0-3.64-2.13-6.94-5.44-8.44l-10.25-4.63l-7.48,8.1l-7.41-8.1L59.3,66.3
			c-3.31,1.5-5.44,4.8-5.44,8.44v10.07"/>
		<path class="st6" d="M76.99,54.72L76.99,54.72c-5.06,0-9.27-3.88-9.67-8.93l-0.28-3.43c-0.47-5.81,4.12-10.78,9.95-10.78h0
			c5.83,0,10.42,4.97,9.95,10.78l-0.28,3.43C86.26,50.84,82.05,54.72,76.99,54.72z"/>
	</g>
</g>
</svg>
