<svg xmlns="http://www.w3.org/2000/svg" viewBox="0 0 120 120"><style></style><path id="icon:2" fill="#fff" d="M92.6 100.84H31.06c-2.45 0-4.45-2-4.45-4.45V54.82l-.13.05-3.27-9.27c-.82-2.3.4-4.85 2.7-5.67l58.06-20.5a4.41 4.41 0 015.68 2.7l3.27 9.27L29.2 53.92h67.9V96.4a4.47 4.47 0 01-4.47 4.44zM29.57 68.57V96.4c0 .8.67 1.47 1.48 1.47H92.6c.83 0 1.5-.67 1.5-1.48V68.56H29.55zm53.17-2.97H94.1v-8.72h-4.6l-6.77 8.72zm-14.83 0h11.68l-.38-.3 6.53-8.4H74.65l-6.75 8.7zm-14.84 0h11.68l-.38-.3 6.53-8.4H59.8l-6.76 8.7zm-16.32 0H49.9l-.37-.3 6.53-8.4H43.5l-6.76 8.7zm-7.18 0h4.02l-.38-.3 6.53-8.4H29.56v8.7zM26 44.62l2.28 6.47 9.42-3.34-8.7-5.6.15-.23-2.25.8a1.47 1.47 0 00-.9 1.9zm6.35-3.82l8.88 5.7 10.45-3.68-8.7-5.6.15-.22-10.78 3.8zm14-4.94l8.87 5.7 10.45-3.68-8.7-5.6.15-.23-10.78 3.8zm13.98-4.94l8.88 5.7 11.86-4.18-8.7-5.6.15-.23-12.17 4.32zm15.38-5.44l8.9 5.7 4.52-1.6-2.3-6.46c-.12-.37-.4-.67-.75-.84-.36-.17-.76-.2-1.13-.06l-9.23 3.26z"/></svg>